<svg width="1438" height="1440" viewBox="0 0 1438 1440" fill="none" xmlns="http://www.w3.org/2000/svg">
<path d="M36.2667 883.84L21.652 798.819L51.0794 793.76L52.1163 799.793L30.2765 812.862L33.7655 833.16L131.748 816.317L129.254 801.807L135.286 800.771L142.755 844.219L136.722 845.256L134.186 830.501L36.2036 847.344L39.7347 867.886L64.6572 872.75L65.6941 878.782L36.2667 883.84ZM24.4694 751.385L24.4981 766.273L18.3774 766.285L18.2164 682.746L48.0753 682.688L48.0871 688.809L24.3664 697.953L24.442 737.158L67.2866 737.076L67.234 709.781L55.0754 709.804L55.0604 702.029L86.2427 701.969L86.2577 709.744L74.0164 709.768L74.069 737.063L123.861 736.967L123.783 696.272L100.11 687.302L100.098 681.264L129.875 681.207L130.038 766.069L123.918 766.081L123.889 751.193L24.4694 751.385ZM62.5222 579.264C57.6544 578.952 53.4524 579.34 49.9163 580.425C46.3349 581.447 43.3515 582.905 40.9662 584.798C38.5264 586.682 36.6213 588.879 35.2509 591.389C33.8895 593.845 32.9905 596.378 32.5537 598.988C31.5345 605.08 31.8483 610.387 33.4953 614.912C35.0879 619.428 37.6554 623.295 41.1978 626.516C44.7493 629.682 49.0445 632.246 54.0835 634.207C59.1225 636.168 64.5788 637.64 70.4524 638.623C75.0751 639.397 79.7705 639.903 84.5387 640.141C89.3159 640.326 93.9483 640.206 98.4358 639.783C102.932 639.306 107.207 638.483 111.26 637.317C115.313 636.15 118.931 634.575 122.114 632.592C125.306 630.554 127.955 628.09 130.06 625.199C132.174 622.255 133.559 618.824 134.214 614.909C134.714 611.917 134.703 608.813 134.179 605.594C133.601 602.367 132.47 599.27 130.786 596.305C129.101 593.339 126.873 590.618 124.101 588.142C121.283 585.602 117.88 583.551 113.893 581.989L114.957 575.626C119.335 577.197 123.299 579.398 126.851 582.229C130.358 584.996 133.284 588.225 135.629 591.916C137.929 595.543 139.554 599.533 140.503 603.885C141.407 608.173 141.481 612.574 140.726 617.088C139.734 623.016 138.117 628.169 135.875 632.546C133.579 636.914 130.861 640.624 127.723 643.677C124.53 646.721 120.988 649.176 117.098 651.04C113.208 652.905 109.151 654.267 104.926 655.126C100.701 655.984 96.4081 656.412 92.0478 656.409C87.6331 656.397 83.3319 656.041 79.1442 655.34C74.6846 654.594 70.1754 653.476 65.6166 651.987C61.0669 650.443 56.7168 648.541 52.5664 646.281C48.3707 643.957 44.5198 641.244 41.0136 638.142C37.462 634.976 34.5091 631.407 32.1547 627.435C29.8094 623.408 28.176 618.97 27.2544 614.119C26.2876 609.205 26.2865 603.866 27.2511 598.101C27.9609 593.859 28.9877 590.062 30.3315 586.708C31.6753 583.355 33.2092 580.369 34.9333 577.75C36.6574 575.132 38.5172 572.871 40.5127 570.969C42.463 569.003 44.413 567.372 46.3629 566.077L64.2284 569.067L62.5222 579.264ZM42.4136 531.174L70.8866 449.74L99.0723 459.595L97.0522 465.372L71.6139 466.204L64.8164 485.645L158.665 518.459L163.524 504.561L169.302 506.581L154.751 548.196L148.974 546.176L153.915 532.044L60.0664 499.23L53.187 518.906L72.6195 535.251L70.5994 541.029L42.4136 531.174ZM145.964 362.917L181.201 442.951L189.516 447.738L195.253 437.774L200.557 440.828L181.615 473.73L176.31 470.676L182.418 460.067L96.2579 410.462L90.1501 421.07L84.8457 418.016L103.788 385.115L109.093 388.169L103.356 398.133L171.453 437.338L136.215 357.305L129.191 353.26L123.537 363.081L118.232 360.027L137.175 327.125L142.479 330.179L136.371 340.788L222.532 390.393L228.639 379.785L233.944 382.839L215.001 415.74L209.697 412.686L215.351 402.866L145.964 362.917ZM188.268 261.768C192.026 257.364 195.873 254.086 199.809 251.936C203.704 249.749 207.556 248.505 211.365 248.203C215.174 247.902 218.833 248.413 222.34 249.739C225.884 251.023 229.166 252.953 232.187 255.529C235.375 258.249 237.873 261.395 239.682 264.968C241.484 268.462 242.504 272.195 242.74 276.166C242.971 280.059 242.352 284.097 240.885 288.282C239.417 292.466 237.001 296.529 233.637 300.473L219.68 316.833L254.603 346.626L263.407 336.307L268.064 340.279L241.223 371.742L236.566 367.769L245.37 357.449L169.734 292.924L160.931 303.244L156.274 299.272L188.268 261.768ZM214.772 312.646L227.441 297.796C229.23 295.698 230.436 293.393 231.058 290.879C231.716 288.324 231.823 285.734 231.381 283.109C230.932 280.407 229.921 277.769 228.348 275.195C226.769 272.543 224.679 270.107 222.078 267.889C219.393 265.598 216.656 263.879 213.866 262.731C211.07 261.506 208.341 260.881 205.68 260.857C203.012 260.756 200.489 261.249 198.111 262.337C195.691 263.39 193.533 265.028 191.636 267.251L178.968 282.101L214.772 312.646ZM373.641 233.484L381.384 227.142L385.262 231.878L358.514 253.784L354.636 249.048L362.378 242.707L330.6 223.616L302.764 246.413L315.345 281.226L323.6 274.465L327.478 279.201L305.593 297.124L301.715 292.388L309.842 285.733L271.768 180.497L277.719 175.624L373.641 233.484ZM300.48 239.838L324.605 220.081L284.555 196.111L300.48 239.838ZM338.928 135.573L335.784 130.322L377.366 105.42L380.511 110.671L365.68 119.552L425.131 218.826C427.709 223.131 429.266 227.18 429.802 230.972C430.414 234.784 430.259 238.283 429.339 241.469C428.495 244.674 427.041 247.505 424.978 249.962C422.942 252.466 420.576 254.526 417.88 256.141C414.285 258.294 410.657 259.695 406.996 260.344C403.336 260.994 400.078 261.081 397.223 260.606L398.731 254.593C401.039 255.011 403.502 255.046 406.122 254.698C408.817 254.369 411.773 253.242 414.99 251.315C416.599 250.352 417.768 249.138 418.497 247.673C419.274 246.179 419.653 244.506 419.636 242.652C419.647 240.846 419.261 238.86 418.478 236.694C417.723 234.575 416.652 232.356 415.263 230.038L353.475 126.861L338.928 135.573ZM530.593 160.729L488.681 174.925L486.718 169.128L500.819 164.352L468.925 70.1872L454.823 74.9634L452.86 69.1662L531.983 42.3664L541.562 70.6472L535.765 72.6107L519.532 53.0459L482.399 65.6233L514.294 159.788L528.63 154.932L530.593 160.729ZM654.943 85.0107C654.244 80.3205 653.24 75.6478 651.932 70.9925C650.67 66.2746 649.114 61.8236 647.263 57.6396C645.467 53.4475 643.388 49.6042 641.027 46.1096C638.712 42.5524 636.12 39.5662 633.251 37.1509C630.437 34.7276 627.357 32.957 624.012 31.8393C620.66 30.667 617.074 30.3656 613.257 30.9352C607.203 31.8385 602.279 33.7719 598.484 36.7354C594.681 39.6444 591.822 43.2767 589.907 47.6323C587.992 51.9878 586.88 56.8648 586.571 62.2631C586.261 67.6615 586.546 73.3057 587.425 79.1957C588.062 83.8396 589.007 88.4932 590.26 93.1566C591.514 97.8199 593.043 102.275 594.847 106.522C596.651 110.768 598.715 114.697 601.038 118.309C603.415 121.913 606.02 124.981 608.851 127.513C611.673 129.991 614.765 131.844 618.126 133.07C621.479 134.243 625.037 134.548 628.8 133.987C634.908 133.075 639.864 131.165 643.667 128.256C647.524 125.339 650.438 121.699 652.407 117.335C654.376 112.971 655.508 108.036 655.801 102.528C656.141 96.9581 655.855 91.1189 654.943 85.0107ZM612.627 25.5934C618.408 24.7309 623.699 24.6941 628.5 25.483C633.355 26.2639 637.719 27.6755 641.592 29.718C645.519 31.7523 648.998 34.3275 652.027 37.4436C655.049 40.5052 657.647 43.9086 659.823 47.6538C662.045 51.3364 663.828 55.2518 665.171 59.3999C666.57 63.5399 667.582 67.7096 668.209 71.909C668.876 76.3811 669.178 81.0192 669.114 85.8233C669.05 90.6275 668.534 95.3877 667.565 100.104C666.651 104.812 665.209 109.348 663.24 113.711C661.325 118.067 658.819 122.009 655.722 125.538C652.679 129.058 648.997 132.032 644.676 134.461C640.356 136.89 635.332 138.531 629.605 139.386C623.661 140.273 618.261 140.326 613.406 139.545C608.542 138.71 604.174 137.271 600.301 135.228C596.42 133.131 592.992 130.521 590.017 127.396C587.042 124.272 584.494 120.833 582.373 117.08C580.252 113.327 578.519 109.376 577.176 105.228C575.824 101.025 574.835 96.8241 574.208 92.6247C573.541 88.1526 573.212 83.5186 573.221 78.7226C573.277 73.8639 573.738 69.1118 574.606 64.4664C575.521 59.7584 576.912 55.2579 578.78 50.965C580.703 46.664 583.19 42.7806 586.241 39.3148C589.346 35.8408 593.064 32.9168 597.393 30.5426C601.768 28.1057 606.846 26.456 612.627 25.5934ZM822.31 55.6994C822.345 50.8218 821.72 46.6485 820.436 43.1796C819.213 39.6618 817.589 36.7658 815.564 34.4915C813.544 32.1624 811.243 30.3848 808.659 29.1587C806.13 27.9386 803.55 27.1844 800.919 26.8962C794.78 26.2236 789.499 26.8376 785.075 28.7381C780.657 30.5839 776.94 33.3663 773.926 37.0854C770.966 40.8105 768.65 45.2441 766.977 50.386C765.304 55.528 764.143 61.0589 763.495 66.9787C762.984 71.6379 762.745 76.3544 762.777 81.1284C762.863 85.9084 763.245 90.5266 763.921 94.983C764.653 99.4453 765.716 103.667 767.11 107.647C768.505 111.627 770.282 115.15 772.442 118.216C774.658 121.288 777.268 123.792 780.273 125.73C783.332 127.674 786.836 128.862 790.782 129.295C793.797 129.625 796.896 129.438 800.08 128.732C803.269 127.973 806.297 126.668 809.162 124.818C812.027 122.969 814.618 120.59 816.933 117.682C819.31 114.725 821.165 111.212 822.498 107.142L828.911 107.845C827.591 112.304 825.618 116.387 822.993 120.093C820.429 123.751 817.371 126.855 813.818 129.406C810.327 131.908 806.436 133.756 802.144 134.95C797.914 136.095 793.524 136.418 788.975 135.92C783 135.265 777.764 133.943 773.267 131.952C768.776 129.907 764.918 127.404 761.692 124.444C758.472 121.428 755.821 118.031 753.739 114.253C751.657 110.475 750.067 106.501 748.971 102.331C747.875 98.1618 747.204 93.9003 746.96 89.5468C746.722 85.1385 746.834 80.824 747.297 76.6034C747.789 72.1087 748.65 67.5434 749.879 62.9076C751.163 58.2777 752.815 53.8269 754.836 49.5552C756.918 45.2347 759.409 41.2362 762.308 37.5599C765.268 33.8348 768.664 30.6845 772.496 28.1089C776.383 25.5393 780.722 23.6571 785.513 22.4624C790.364 21.2188 795.695 20.9153 801.505 21.5519C805.78 22.0203 809.63 22.8304 813.054 23.9821C816.478 25.1338 819.546 26.4962 822.258 28.0691C824.97 29.6421 827.333 31.3709 829.345 33.2555C831.418 35.0913 833.156 36.9459 834.56 38.8193L832.587 56.8254L822.31 55.6994ZM869.157 32.8909L952.079 56.6858L943.844 85.3865L937.96 83.6982L935.683 58.3484L915.887 52.6678L888.465 148.231L902.616 152.292L900.928 158.175L858.553 146.015L860.241 140.132L874.631 144.261L902.053 48.6982L882.018 42.9491L866.805 63.2798L860.922 61.5916L869.157 32.8909ZM1043.06 126.772L965.133 166.457L960.822 175.028L971.092 180.195L968.342 185.663L934.426 168.602L937.177 163.134L948.113 168.635L992.791 79.8202L981.856 74.319L984.606 68.8512L1018.52 85.9123L1015.77 91.3801L1005.5 86.2135L970.189 156.408L1048.11 116.723L1051.75 109.482L1041.63 104.39L1044.38 98.9219L1078.3 115.983L1075.55 121.451L1064.61 115.95L1019.93 204.765L1030.87 210.266L1028.12 215.734L994.203 198.672L996.954 193.205L1007.08 198.297L1043.06 126.772ZM1043.83 217.747L1046.11 219.522C1049.25 221.956 1052.22 222.898 1055.02 222.348C1057.89 221.788 1060.65 219.81 1063.29 216.411L1116.17 148.254L1104.28 139.026L1108.03 134.19L1185.4 194.224L1181.65 199.06L1170.67 190.541L1109.73 269.089L1120.7 277.607L1116.95 282.443L1084.28 257.091L1088.03 252.255L1098.36 260.267L1159.3 181.719L1122.64 153.274L1070.21 220.843C1066.06 226.202 1061.57 229.106 1056.75 229.557C1051.97 229.964 1047.14 228.274 1042.26 224.488L1039.97 222.713L1043.83 217.747ZM1218.16 322.04C1221.72 318.909 1225.1 315.531 1228.3 311.908C1231.58 308.29 1234.48 304.569 1236.99 300.745C1239.54 296.963 1241.64 293.133 1243.3 289.254C1245.03 285.38 1246.13 281.583 1246.61 277.862C1247.12 274.183 1246.94 270.636 1246.06 267.219C1245.23 263.767 1243.54 260.591 1240.99 257.692C1236.95 253.095 1232.65 250.006 1228.11 248.424C1223.6 246.806 1219 246.374 1214.3 247.127C1209.6 247.88 1204.9 249.59 1200.2 252.257C1195.49 254.924 1190.9 258.223 1186.43 262.155C1182.88 265.209 1179.48 268.526 1176.24 272.108C1173 275.69 1170.09 279.39 1167.5 283.209C1164.91 287.028 1162.72 290.892 1160.95 294.802C1159.21 298.754 1158.04 302.606 1157.45 306.358C1156.9 310.073 1157.02 313.675 1157.81 317.164C1158.65 320.617 1160.32 323.772 1162.83 326.63C1166.91 331.268 1171.2 334.396 1175.71 336.014C1180.25 337.673 1184.89 338.147 1189.62 337.436C1194.36 336.724 1199.12 334.999 1203.9 332.259C1208.77 329.524 1213.52 326.118 1218.16 322.04ZM1245.14 254.266C1249 258.656 1251.9 263.082 1253.84 267.543C1255.81 272.046 1256.99 276.479 1257.38 280.84C1257.8 285.243 1257.52 289.562 1256.54 293.797C1255.61 297.996 1254.16 302.025 1252.19 305.884C1250.3 309.748 1247.98 313.369 1245.22 316.747C1242.5 320.167 1239.55 323.278 1236.36 326.082C1232.96 329.067 1229.23 331.836 1225.16 334.387C1221.09 336.938 1216.81 339.086 1212.32 340.829C1207.87 342.614 1203.27 343.862 1198.54 344.573C1193.84 345.326 1189.17 345.358 1184.53 344.669C1179.92 344.021 1175.42 342.54 1171.04 340.227C1166.66 337.913 1162.55 334.582 1158.73 330.234C1154.76 325.72 1151.79 321.212 1149.81 316.709C1147.88 312.169 1146.72 307.719 1146.33 303.357C1145.99 298.959 1146.33 294.663 1147.34 290.47C1148.35 286.276 1149.86 282.27 1151.86 278.453C1153.87 274.636 1156.25 271.038 1159 267.659C1161.8 264.245 1164.79 261.136 1167.98 258.332C1171.38 255.347 1175.09 252.557 1179.13 249.965C1183.24 247.377 1187.48 245.188 1191.86 243.398C1196.31 241.614 1200.85 240.343 1205.47 239.585C1210.12 238.868 1214.73 238.852 1219.3 239.536C1223.9 240.262 1228.37 241.8 1232.72 244.15C1237.14 246.504 1241.28 249.877 1245.14 254.266ZM1297.84 320.54L1342.14 394.56L1316.52 409.896L1313.38 404.645L1329.03 384.575L1318.46 366.904L1233.15 417.967L1240.71 430.599L1235.46 433.743L1212.82 395.916L1218.07 392.773L1225.76 405.618L1311.06 354.555L1300.36 336.671L1275.36 341.128L1272.22 335.876L1297.84 320.54ZM1395.61 528.34L1413.54 612.725L1384.33 618.931L1383.06 612.944L1404.37 599.029L1400.09 578.884L1302.84 599.548L1305.9 613.95L1299.92 615.222L1290.75 572.099L1296.74 570.827L1299.85 585.471L1397.1 564.806L1392.77 544.418L1367.68 540.533L1366.4 534.546L1395.61 528.34ZM1412.58 660.24L1411.97 645.364L1418.09 645.113L1421.51 728.582L1391.68 729.805L1391.42 723.69L1414.77 713.627L1413.16 674.454L1370.35 676.21L1371.47 703.482L1383.62 702.983L1383.94 710.752L1352.78 712.03L1352.47 704.261L1364.7 703.76L1363.58 676.488L1313.83 678.528L1315.49 719.188L1339.5 727.227L1339.75 733.259L1310 734.48L1306.52 649.688L1312.63 649.438L1313.24 664.313L1412.58 660.24ZM1381.3 833.696C1386.18 833.816 1390.36 833.264 1393.85 832.04C1397.39 830.878 1400.31 829.304 1402.62 827.319C1404.99 825.341 1406.8 823.07 1408.07 820.508C1409.34 818.001 1410.14 815.434 1410.47 812.809C1411.25 806.682 1410.73 801.391 1408.9 796.934C1407.13 792.485 1404.42 788.721 1400.75 785.642C1397.08 782.618 1392.69 780.225 1387.57 778.464C1382.46 776.702 1376.95 775.445 1371.04 774.694C1366.39 774.103 1361.68 773.781 1356.91 773.73C1352.13 773.734 1347.5 774.035 1343.04 774.634C1338.56 775.288 1334.32 776.278 1330.32 777.603C1326.31 778.928 1322.76 780.644 1319.66 782.751C1316.55 784.912 1314 787.478 1312.01 790.449C1310.01 793.475 1308.76 796.957 1308.26 800.895C1307.88 803.904 1308.01 807.006 1308.66 810.201C1309.37 813.404 1310.62 816.453 1312.42 819.35C1314.22 822.247 1316.55 824.879 1319.42 827.244C1322.34 829.672 1325.82 831.587 1329.86 832.991L1329.05 839.391C1324.61 837.993 1320.56 835.95 1316.9 833.261C1313.29 830.634 1310.24 827.522 1307.75 823.926C1305.31 820.392 1303.53 816.469 1302.41 812.158C1301.34 807.908 1301.09 803.513 1301.67 798.973C1302.43 793.011 1303.84 787.799 1305.91 783.337C1308.03 778.882 1310.6 775.068 1313.62 771.894C1316.69 768.727 1320.13 766.135 1323.95 764.119C1327.76 762.103 1331.76 760.583 1335.95 759.559C1340.14 758.535 1344.41 757.939 1348.77 757.77C1353.18 757.609 1357.49 757.796 1361.7 758.331C1366.19 758.902 1370.74 759.841 1375.35 761.151C1379.96 762.515 1384.38 764.244 1388.61 766.339C1392.9 768.496 1396.85 771.056 1400.48 774.018C1404.15 777.042 1407.24 780.492 1409.75 784.369C1412.25 788.3 1414.06 792.671 1415.17 797.481C1416.33 802.353 1416.54 807.689 1415.8 813.487C1415.26 817.754 1414.38 821.589 1413.17 824.992C1411.96 828.396 1410.55 831.44 1408.93 834.124C1407.31 836.808 1405.54 839.14 1403.62 841.12C1401.75 843.161 1399.86 844.867 1397.96 846.237L1380 843.952L1381.3 833.696ZM1403.29 880.933L1378.06 963.43L1349.51 954.697L1351.3 948.844L1376.68 947.007L1382.71 927.312L1287.63 898.235L1283.33 912.314L1277.47 910.524L1290.37 868.366L1296.22 870.156L1291.84 884.472L1386.92 913.549L1393.01 893.617L1372.95 878.053L1374.74 872.2L1403.29 880.933ZM1306.46 1053.16L1268.09 974.574L1259.6 970.118L1254.26 980.3L1248.84 977.457L1266.47 943.836L1271.89 946.678L1266.21 957.519L1354.25 1003.69L1359.94 992.854L1365.36 995.696L1347.72 1029.32L1342.3 1026.48L1347.64 1016.29L1278.06 979.799L1316.42 1058.38L1323.6 1062.15L1328.86 1052.11L1334.28 1054.96L1316.65 1088.58L1311.23 1085.73L1316.91 1074.89L1228.87 1028.72L1223.18 1039.56L1217.76 1036.72L1235.39 1003.09L1240.81 1005.94L1235.55 1015.97L1306.46 1053.16ZM1268.13 1155.91C1264.55 1160.46 1260.83 1163.89 1256.98 1166.19C1253.17 1168.53 1249.37 1169.92 1245.58 1170.37C1241.78 1170.82 1238.11 1170.45 1234.55 1169.26C1230.96 1168.12 1227.61 1166.32 1224.49 1163.86C1221.2 1161.27 1218.58 1158.22 1216.63 1154.72C1214.69 1151.3 1213.53 1147.61 1213.14 1143.65C1212.75 1139.77 1213.21 1135.71 1214.52 1131.47C1215.82 1127.24 1218.08 1123.08 1221.28 1119.01L1234.59 1102.12L1198.53 1073.71L1190.14 1084.36L1185.33 1080.58L1210.92 1048.09L1215.73 1051.88L1207.34 1062.53L1285.43 1124.06L1293.83 1113.4L1298.63 1117.19L1268.13 1155.91ZM1239.66 1106.11L1227.58 1121.44C1225.87 1123.61 1224.76 1125.96 1224.24 1128.49C1223.68 1131.07 1223.67 1133.67 1224.22 1136.27C1224.77 1138.95 1225.88 1141.55 1227.56 1144.06C1229.24 1146.65 1231.42 1149 1234.11 1151.12C1236.88 1153.3 1239.68 1154.91 1242.51 1155.95C1245.35 1157.07 1248.11 1157.58 1250.77 1157.5C1253.44 1157.5 1255.94 1156.91 1258.27 1155.73C1260.65 1154.58 1262.74 1152.86 1264.55 1150.57L1276.63 1135.23L1239.66 1106.11ZM1084 1191.41L1076.52 1198.05L1072.46 1193.47L1098.33 1170.54L1102.39 1175.12L1094.9 1181.76L1127.4 1199.59L1154.32 1175.73L1140.39 1141.43L1132.41 1148.51L1128.35 1143.93L1149.51 1125.16L1153.57 1129.74L1145.71 1136.71L1187.87 1240.38L1182.11 1245.48L1084 1191.41ZM1156.86 1182.21L1133.53 1202.89L1174.48 1225.28L1156.86 1182.21ZM1122.52 1287.89L1125.87 1293.02L1085.29 1319.53L1081.94 1314.4L1096.41 1304.95L1033.13 1208.08C1030.38 1203.87 1028.67 1199.89 1027.98 1196.12C1027.22 1192.34 1027.24 1188.83 1028.03 1185.61C1028.75 1182.38 1030.1 1179.49 1032.06 1176.96C1034 1174.38 1036.28 1172.22 1038.91 1170.51C1042.42 1168.21 1045.99 1166.67 1049.62 1165.88C1053.25 1165.09 1056.51 1164.87 1059.38 1165.24L1058.11 1171.3C1055.78 1170.98 1053.32 1171.04 1050.72 1171.49C1048.04 1171.92 1045.13 1173.16 1041.99 1175.21C1040.42 1176.24 1039.3 1177.5 1038.63 1178.99C1037.91 1180.51 1037.59 1182.2 1037.68 1184.05C1037.74 1185.86 1038.21 1187.83 1039.07 1189.96C1039.91 1192.05 1041.07 1194.22 1042.55 1196.49L1108.32 1297.17L1122.52 1287.89ZM930.034 1270.29L971.352 1254.45L973.543 1260.17L959.642 1265.5L995.23 1358.33L1009.13 1353L1011.32 1358.71L933.319 1388.62L922.631 1360.74L928.346 1358.55L945.339 1377.45L981.946 1363.42L946.358 1270.59L932.225 1276.01L930.034 1270.29ZM808.752 1350.84C809.635 1355.5 810.822 1360.13 812.311 1364.73C813.757 1369.4 815.486 1373.78 817.499 1377.89C819.459 1382.01 821.687 1385.77 824.183 1389.17C826.636 1392.63 829.343 1395.51 832.304 1397.81C835.212 1400.13 838.359 1401.77 841.744 1402.76C845.141 1403.8 848.735 1403.96 852.527 1403.24C858.541 1402.1 863.385 1399.98 867.061 1396.87C870.747 1393.81 873.462 1390.07 875.204 1385.64C876.946 1381.21 877.867 1376.3 877.964 1370.89C878.062 1365.48 877.556 1359.86 876.447 1354C875.628 1349.39 874.501 1344.78 873.066 1340.17C871.631 1335.56 869.928 1331.16 867.959 1326.99C865.989 1322.82 863.773 1318.97 861.31 1315.46C858.793 1311.95 856.071 1308.98 853.143 1306.56C850.225 1304.2 847.063 1302.47 843.656 1301.38C840.26 1300.34 836.693 1300.17 832.955 1300.88C826.887 1302.03 822.01 1304.13 818.324 1307.19C814.584 1310.25 811.815 1314.01 810.019 1318.44C808.222 1322.88 807.285 1327.86 807.208 1333.37C807.087 1338.95 807.602 1344.77 808.752 1350.84ZM853.366 1408.55C847.623 1409.64 842.338 1409.89 837.51 1409.29C832.627 1408.7 828.211 1407.46 824.261 1405.57C820.257 1403.69 816.68 1401.25 813.531 1398.26C810.392 1395.32 807.662 1392.02 805.341 1388.36C802.977 1384.77 801.041 1380.93 799.536 1376.83C797.977 1372.75 796.802 1368.63 796.011 1364.45C795.169 1360.01 794.685 1355.39 794.56 1350.59C794.436 1345.78 794.765 1341.01 795.548 1336.26C796.277 1331.52 797.54 1326.93 799.337 1322.49C801.079 1318.06 803.429 1314.02 806.385 1310.38C809.288 1306.74 812.85 1303.62 817.072 1301.03C821.294 1298.43 826.25 1296.59 831.938 1295.51C837.843 1294.4 843.237 1294.13 848.119 1294.72C853.012 1295.36 857.433 1296.63 861.383 1298.52C865.344 1300.46 868.871 1302.94 871.966 1305.94C875.062 1308.95 877.743 1312.28 880.009 1315.95C882.276 1319.62 884.162 1323.5 885.667 1327.59C887.183 1331.74 888.336 1335.9 889.127 1340.07C889.969 1344.51 890.479 1349.13 890.658 1353.92C890.793 1358.78 890.518 1363.54 889.833 1368.22C889.104 1372.96 887.89 1377.51 886.192 1381.87C884.439 1386.25 882.106 1390.23 879.194 1393.81C876.227 1397.4 872.627 1400.47 868.395 1403.01C864.118 1405.62 859.109 1407.47 853.366 1408.55ZM642.643 1386.67C642.798 1391.54 643.584 1395.69 645.002 1399.1C646.362 1402.57 648.097 1405.4 650.209 1407.59C652.318 1409.84 654.687 1411.53 657.316 1412.65C659.891 1413.78 662.498 1414.43 665.138 1414.61C671.299 1415.05 676.553 1414.23 680.899 1412.16C685.242 1410.14 688.847 1407.22 691.715 1403.38C694.527 1399.54 696.669 1395.02 698.141 1389.82C699.612 1384.62 700.556 1379.05 700.974 1373.1C701.303 1368.43 701.358 1363.71 701.141 1358.94C700.868 1354.16 700.307 1349.57 699.458 1345.14C698.553 1340.71 697.326 1336.53 695.778 1332.61C694.23 1328.69 692.316 1325.23 690.038 1322.25C687.705 1319.27 685 1316.87 681.922 1315.05C678.788 1313.23 675.242 1312.18 671.281 1311.9C668.256 1311.69 665.166 1311.99 662.013 1312.82C658.855 1313.71 655.881 1315.13 653.09 1317.09C650.298 1319.05 647.803 1321.52 645.602 1324.52C643.343 1327.57 641.626 1331.15 640.452 1335.27L634.016 1334.82C635.162 1330.31 636.975 1326.15 639.453 1322.35C641.873 1318.59 644.808 1315.37 648.258 1312.68C651.65 1310.05 655.466 1308.05 659.707 1306.69C663.89 1305.38 668.264 1304.89 672.829 1305.21C678.825 1305.63 684.108 1306.75 688.679 1308.56C693.247 1310.43 697.2 1312.78 700.538 1315.61C703.873 1318.5 706.654 1321.79 708.882 1325.49C711.11 1329.18 712.852 1333.09 714.11 1337.21C715.368 1341.34 716.204 1345.57 716.617 1349.91C717.027 1354.31 717.083 1358.62 716.785 1362.86C716.468 1367.37 715.786 1371.96 714.738 1376.64C713.635 1381.32 712.157 1385.83 710.304 1390.18C708.392 1394.58 706.059 1398.67 703.305 1402.46C700.493 1406.29 697.222 1409.57 693.493 1412.3C689.709 1415.01 685.446 1417.06 680.706 1418.44C675.907 1419.88 670.592 1420.39 664.761 1419.98C660.471 1419.68 656.593 1419.02 653.126 1418C649.66 1416.98 646.541 1415.74 643.77 1414.27C640.999 1412.81 638.571 1411.17 636.487 1409.37C634.344 1407.61 632.534 1405.83 631.059 1404.01L632.329 1385.94L642.643 1386.67ZM596.774 1411.3L512.977 1390.79L520.074 1361.79L526.019 1363.25L529.295 1388.49L549.301 1393.38L572.929 1296.81L558.628 1293.31L560.083 1287.37L602.905 1297.84L601.451 1303.79L586.909 1300.23L563.28 1396.8L583.526 1401.75L597.925 1380.84L603.871 1382.29L596.774 1411.3ZM419.308 1324.36L495.602 1281.63L499.571 1272.89L489.105 1268.13L491.637 1262.56L526.2 1278.27L523.668 1283.84L512.523 1278.78L471.39 1369.29L482.534 1374.35L480.002 1379.93L445.439 1364.22L447.971 1358.65L458.438 1363.4L490.948 1291.87L414.653 1334.6L411.3 1341.98L421.616 1346.67L419.084 1352.24L384.521 1336.53L387.053 1330.96L398.198 1336.03L439.331 1245.51L428.186 1240.45L430.719 1234.88L465.282 1250.58L462.749 1256.16L452.433 1251.47L419.308 1324.36ZM414.942 1233.48L412.587 1231.8C409.358 1229.49 406.355 1228.66 403.579 1229.32C400.726 1230 398.049 1232.08 395.547 1235.58L345.371 1305.75L357.616 1314.51L354.056 1319.49L274.394 1262.53L277.954 1257.55L289.257 1265.63L347.084 1184.76L335.78 1176.68L339.34 1171.7L372.981 1195.75L369.421 1200.73L358.791 1193.13L300.964 1274L338.71 1300.99L388.454 1231.42C392.398 1225.9 396.768 1222.83 401.563 1222.19C406.326 1221.59 411.22 1223.09 416.243 1226.69L418.598 1228.37L414.942 1233.48ZM236.671 1136.06C233.234 1139.33 229.986 1142.84 226.926 1146.58C223.789 1150.32 221.04 1154.15 218.678 1158.07C216.279 1161.95 214.327 1165.86 212.823 1169.8C211.241 1173.74 210.286 1177.58 209.957 1181.31C209.59 1185.01 209.91 1188.55 210.916 1191.93C211.883 1195.34 213.696 1198.45 216.355 1201.25C220.572 1205.68 224.983 1208.61 229.589 1210.01C234.155 1211.45 238.77 1211.7 243.435 1210.77C248.101 1209.83 252.731 1207.94 257.328 1205.1C261.925 1202.25 266.381 1198.77 270.697 1194.67C274.133 1191.48 277.399 1188.03 280.496 1184.33C283.593 1180.62 286.361 1176.81 288.801 1172.9C291.24 1168.98 293.271 1165.03 294.893 1161.06C296.477 1157.04 297.492 1153.15 297.939 1149.38C298.346 1145.64 298.086 1142.05 297.159 1138.59C296.193 1135.17 294.399 1132.09 291.778 1129.33C287.523 1124.85 283.113 1121.89 278.547 1120.45C273.943 1118.97 269.289 1118.68 264.586 1119.57C259.883 1120.46 255.193 1122.37 250.517 1125.3C245.762 1128.22 241.147 1131.81 236.671 1136.06ZM212.344 1204.83C208.317 1200.6 205.248 1196.29 203.136 1191.9C200.986 1187.48 199.634 1183.1 199.081 1178.75C198.49 1174.37 198.6 1170.04 199.41 1165.77C200.181 1161.54 201.474 1157.46 203.29 1153.53C205.028 1149.59 207.208 1145.89 209.832 1142.4C212.417 1138.88 215.249 1135.66 218.326 1132.73C221.604 1129.62 225.227 1126.7 229.196 1124C233.165 1121.29 237.358 1118.98 241.775 1117.06C246.154 1115.1 250.695 1113.68 255.398 1112.78C260.063 1111.85 264.729 1111.64 269.396 1112.14C274.026 1112.61 278.576 1113.92 283.046 1116.06C287.516 1118.2 291.745 1121.37 295.734 1125.57C299.875 1129.92 303.021 1134.31 305.171 1138.74C307.281 1143.2 308.612 1147.6 309.165 1151.94C309.678 1156.32 309.511 1160.63 308.662 1164.86C307.814 1169.09 306.463 1173.15 304.609 1177.04C302.755 1180.93 300.517 1184.62 297.893 1188.1C295.23 1191.63 292.359 1194.85 289.282 1197.77C286.005 1200.89 282.4 1203.82 278.469 1206.57C274.46 1209.31 270.306 1211.67 266.005 1213.62C261.626 1215.58 257.143 1217.03 252.555 1217.96C247.93 1218.86 243.323 1219.05 238.733 1218.55C234.106 1218 229.577 1216.64 225.147 1214.46C220.639 1212.28 216.371 1209.07 212.344 1204.83ZM157.383 1141.11L109.89 1069.09L134.817 1052.66L138.186 1057.77L123.424 1078.5L134.762 1095.69L217.759 1040.96L209.654 1028.67L214.764 1025.3L239.034 1062.1L233.924 1065.47L225.682 1052.97L142.685 1107.71L154.16 1125.11L178.94 1119.56L182.31 1124.67L157.383 1141.11Z" fill="#FFE419"/>
</svg>
